<svg id="Layer_1" data-name="Layer 1" xmlns="http://www.w3.org/2000/svg" xmlns:xlink="http://www.w3.org/1999/xlink" viewBox="0 0 511.3 331.09">
  <defs>
    <style>
      .cls-1, .cls-26, .cls-29, .cls-4, .cls-6, .cls-7 {
        fill: none;
      }

      .cls-2 {
        clip-path: url(#clip-path);
      }

      .cls-3 {
        fill: #fff;
      }

      .cls-4 {
        stroke: #fff;
      }

      .cls-26, .cls-4 {
        stroke-linecap: round;
      }

      .cls-26, .cls-29, .cls-4, .cls-6, .cls-7 {
        stroke-linejoin: round;
      }

      .cls-26, .cls-29, .cls-4, .cls-7 {
        stroke-width: 1.07px;
      }

      .cls-5 {
        clip-path: url(#clip-path-2);
      }

      .cls-6, .cls-7 {
        stroke: #ebebeb;
      }

      .cls-6 {
        stroke-width: 0.53px;
      }

      .cls-8 {
        fill: #28651a;
      }

      .cls-9 {
        fill: #276419;
      }

      .cls-10 {
        fill: #29651b;
      }

      .cls-11 {
        fill: #28641a;
      }

      .cls-12 {
        fill: #2b671d;
      }

      .cls-13 {
        fill: #2c671e;
      }

      .cls-14 {
        fill: #5f8951;
      }

      .cls-15 {
        fill: #2b661d;
      }

      .cls-16 {
        fill: #3a6f2b;
      }

      .cls-17 {
        fill: #316a22;
      }

      .cls-18 {
        fill: #9fb795;
      }

      .cls-19 {
        fill: #366d28;
      }

      .cls-20 {
        fill: #2e681f;
      }

      .cls-21 {
        fill: #528043;
      }

      .cls-22 {
        fill: #356c26;
      }

      .cls-23 {
        fill: #f3f4f3;
      }

      .cls-24 {
        fill: #487939;
      }

      .cls-25, .cls-27 {
        font-size: 6px;
      }

      .cls-25 {
        font-family: Arial-BoldMT, Arial;
        font-weight: 700;
      }

      .cls-26, .cls-29 {
        stroke: #333;
      }

      .cls-27 {
        fill: #4d4d4d;
      }

      .cls-27, .cls-30 {
        font-family: Helvetica, Helvetica;
      }

      .cls-28 {
        letter-spacing: -0.04em;
      }

      .cls-30 {
        font-size: 7px;
      }

      .cls-31 {
        clip-path: url(#clip-path-3);
      }

      .cls-32 {
        clip-path: url(#clip-path-4);
      }

      .cls-33 {
        fill: #286419;
      }

      .cls-34 {
        fill: #2d681f;
      }

      .cls-35 {
        fill: #2a661b;
      }

      .cls-36 {
        fill: #568347;
      }

      .cls-37 {
        fill: #346c26;
      }

      .cls-38 {
        fill: #2f6921;
      }

      .cls-39 {
        fill: #91ad85;
      }

      .cls-40 {
        fill: #346c25;
      }

      .cls-41 {
        fill: #2d671f;
      }

      .cls-42 {
        fill: #5a864c;
      }

      .cls-43 {
        fill: #4c7b3d;
      }

      .cls-44 {
        fill: #f6f5f5;
      }

      .cls-45 {
        fill: #4f7e40;
      }

      .cls-46 {
        fill: #4a7b3b;
      }

      .cls-47 {
        letter-spacing: -0.03em;
      }

      .cls-48 {
        clip-path: url(#clip-path-5);
      }

      .cls-49 {
        clip-path: url(#clip-path-6);
      }

      .cls-50 {
        fill: #2a661c;
      }

      .cls-51 {
        fill: #326b24;
      }

      .cls-52 {
        fill: #306921;
      }

      .cls-53 {
        fill: #8daa81;
      }

      .cls-54 {
        fill: #608951;
      }

      .cls-55 {
        fill: #f0e4e8;
      }

      .cls-56 {
        fill: #316a23;
      }

      .cls-57 {
        fill: #5c874d;
      }

      .cls-58 {
        fill: #386e29;
      }

      .cls-59 {
        fill: #f1e6ea;
      }

      .cls-60 {
        fill: #427533;
      }

      .cls-61 {
        fill: #3e722f;
      }

      .cls-62 {
        fill: #87a67b;
      }

      .cls-63 {
        fill: #f2e9ec;
      }

      .cls-64 {
        fill: #7b9d6e;
      }

      .cls-65 {
        clip-path: url(#clip-path-7);
      }

      .cls-66 {
        clip-path: url(#clip-path-8);
      }

      .cls-67 {
        fill: #356d27;
      }

      .cls-68 {
        fill: #94af89;
      }

      .cls-69 {
        fill: #e9d4db;
      }

      .cls-70 {
        fill: #366d27;
      }

      .cls-71 {
        fill: #84a377;
      }

      .cls-72 {
        fill: #437634;
      }

      .cls-73 {
        fill: #e6cad4;
      }

      .cls-74 {
        fill: #396f2b;
      }

      .cls-75 {
        fill: #467837;
      }

      .cls-76 {
        fill: #7e9f71;
      }

      .cls-77 {
        fill: #3a702b;
      }

      .cls-78 {
        fill: #ddb5c3;
      }

      .cls-79 {
        fill: #729664;
      }

      .cls-80 {
        fill: #5e884f;
      }
    </style>
    <clipPath id="clip-path" transform="translate(0.54 1.04)">
      <rect class="cls-1" y="-0.5" width="293.11" height="165.01"/>
    </clipPath>
    <clipPath id="clip-path-2" transform="translate(0.54 1.04)">
      <rect class="cls-1" x="92.92" y="17.03" width="194.72" height="122.14"/>
    </clipPath>
    <clipPath id="clip-path-3" transform="translate(0.54 1.04)">
      <rect class="cls-1" x="293.11" y="-0.5" width="217.12" height="165.01"/>
    </clipPath>
    <clipPath id="clip-path-4" transform="translate(0.54 1.04)">
      <rect class="cls-1" x="310.64" y="17.03" width="194.12" height="122.14"/>
    </clipPath>
    <clipPath id="clip-path-5" transform="translate(0.54 1.04)">
      <rect class="cls-1" y="164.51" width="293.11" height="165.01"/>
    </clipPath>
    <clipPath id="clip-path-6" transform="translate(0.54 1.04)">
      <rect class="cls-1" x="92.92" y="182.04" width="194.72" height="122.14"/>
    </clipPath>
    <clipPath id="clip-path-7" transform="translate(0.54 1.04)">
      <rect class="cls-1" x="293.11" y="164.51" width="217.12" height="165.01"/>
    </clipPath>
    <clipPath id="clip-path-8" transform="translate(0.54 1.04)">
      <rect class="cls-1" x="310.64" y="182.04" width="194.12" height="122.14"/>
    </clipPath>
  </defs>
  <title>mags_r104_hp</title>
  <g class="cls-2">
    <rect class="cls-3" x="0.54" y="0.54" width="293.11" height="165.01"/>
    <rect class="cls-4" x="0.54" y="0.54" width="293.11" height="165.01"/>
  </g>
  <g class="cls-5">
    <rect class="cls-3" x="93.45" y="18.06" width="194.72" height="122.14"/>
    <line class="cls-6" x1="93.45" y1="140.2" x2="93.45" y2="18.05"/>
    <line class="cls-6" x1="132.4" y1="140.2" x2="132.4" y2="18.05"/>
    <line class="cls-6" x1="171.34" y1="140.2" x2="171.34" y2="18.05"/>
    <line class="cls-6" x1="210.29" y1="140.2" x2="210.29" y2="18.05"/>
    <line class="cls-6" x1="249.23" y1="140.2" x2="249.23" y2="18.05"/>
    <line class="cls-6" x1="288.17" y1="140.2" x2="288.17" y2="18.05"/>
    <line class="cls-7" x1="93.45" y1="127.98" x2="288.17" y2="127.98"/>
    <line class="cls-7" x1="93.45" y1="103.55" x2="288.17" y2="103.55"/>
    <line class="cls-7" x1="93.45" y1="79.12" x2="288.17" y2="79.12"/>
    <line class="cls-7" x1="93.45" y1="54.7" x2="288.17" y2="54.7"/>
    <line class="cls-7" x1="93.45" y1="30.27" x2="288.17" y2="30.27"/>
    <line class="cls-7" x1="112.92" y1="140.2" x2="112.92" y2="18.05"/>
    <line class="cls-7" x1="151.87" y1="140.2" x2="151.87" y2="18.05"/>
    <line class="cls-7" x1="190.81" y1="140.2" x2="190.81" y2="18.05"/>
    <line class="cls-7" x1="229.76" y1="140.2" x2="229.76" y2="18.05"/>
    <line class="cls-7" x1="268.7" y1="140.2" x2="268.7" y2="18.05"/>
    <rect class="cls-8" x="93.45" y="91.34" width="38.94" height="24.43"/>
    <rect class="cls-9" x="93.45" y="115.77" width="38.94" height="24.43"/>
    <rect class="cls-10" x="93.45" y="42.49" width="38.94" height="24.43"/>
    <rect class="cls-9" x="93.45" y="66.92" width="38.94" height="24.43"/>
    <rect class="cls-9" x="93.45" y="18.06" width="38.94" height="24.43"/>
    <rect class="cls-10" x="132.4" y="91.34" width="38.94" height="24.43"/>
    <rect class="cls-11" x="132.4" y="115.77" width="38.94" height="24.43"/>
    <rect class="cls-12" x="132.4" y="42.49" width="38.94" height="24.43"/>
    <rect class="cls-8" x="132.4" y="66.92" width="38.94" height="24.43"/>
    <rect class="cls-11" x="132.4" y="18.06" width="38.94" height="24.43"/>
    <rect class="cls-13" x="171.34" y="91.34" width="38.94" height="24.43"/>
    <rect class="cls-10" x="171.34" y="115.77" width="38.94" height="24.43"/>
    <rect class="cls-14" x="171.34" y="42.49" width="38.94" height="24.43"/>
    <rect class="cls-15" x="171.34" y="66.92" width="38.94" height="24.43"/>
    <rect class="cls-10" x="171.34" y="18.06" width="38.94" height="24.43"/>
    <rect class="cls-16" x="210.29" y="91.34" width="38.94" height="24.43"/>
    <rect class="cls-17" x="210.29" y="115.77" width="38.94" height="24.43"/>
    <rect class="cls-18" x="210.29" y="42.49" width="38.94" height="24.43"/>
    <rect class="cls-19" x="210.29" y="66.92" width="38.94" height="24.43"/>
    <rect class="cls-20" x="210.29" y="18.06" width="38.94" height="24.43"/>
    <rect class="cls-21" x="249.23" y="91.34" width="38.94" height="24.43"/>
    <rect class="cls-22" x="249.23" y="115.77" width="38.94" height="24.43"/>
    <rect class="cls-23" x="249.23" y="42.49" width="38.94" height="24.43"/>
    <rect class="cls-24" x="249.23" y="66.92" width="38.94" height="24.43"/>
    <rect class="cls-19" x="249.23" y="18.06" width="38.94" height="24.43"/>
    <text class="cls-25" transform="translate(102.58 110.01)">(50442)</text>
    <text class="cls-25" transform="translate(102.58 134.45)">(50342)</text>
    <text class="cls-25" transform="translate(102.58 61.16)">(50733)</text>
    <text class="cls-25" transform="translate(102.58 85.6)">(50517)</text>
    <text class="cls-25" transform="translate(102.58 36.74)">(55498)</text>
    <text class="cls-25" transform="translate(141.53 110.01)">(17183)</text>
    <text class="cls-25" transform="translate(141.53 134.45)">(17184)</text>
    <text class="cls-25" transform="translate(141.53 61.16)">(17647)</text>
    <text class="cls-25" transform="translate(141.53 85.6)">(17600)</text>
    <text class="cls-25" transform="translate(141.53 36.74)">(18990)</text>
    <text class="cls-25" transform="translate(182.14 110.01)">(4537)</text>
    <text class="cls-25" transform="translate(182.14 134.45)">(4535)</text>
    <text class="cls-25" transform="translate(182.14 61.16)">(4557)</text>
    <text class="cls-25" transform="translate(182.14 85.6)">(4555)</text>
    <text class="cls-25" transform="translate(182.14 36.74)">(5009)</text>
    <text class="cls-25" transform="translate(222.76 110.01)">(683)</text>
    <text class="cls-25" transform="translate(222.76 134.45)">(684)</text>
    <text class="cls-25" transform="translate(222.76 61.16)">(698)</text>
    <text class="cls-25" transform="translate(222.76 85.6)">(700)</text>
    <text class="cls-25" transform="translate(222.76 36.74)">(769)</text>
    <text class="cls-25" transform="translate(261.7 110.01)">(102)</text>
    <text class="cls-25" transform="translate(261.7 134.45)">(101)</text>
    <text class="cls-25" transform="translate(261.7 61.16)">(108)</text>
    <text class="cls-25" transform="translate(261.7 85.6)">(109)</text>
    <text class="cls-25" transform="translate(261.7 36.74)">(120)</text>
    <text class="cls-25" transform="translate(104.58 101.41)">50331</text>
    <text class="cls-25" transform="translate(104.58 125.83)">50308</text>
    <text class="cls-25" transform="translate(104.58 52.54)">50497</text>
    <text class="cls-25" transform="translate(104.58 76.97)">50479</text>
    <text class="cls-25" transform="translate(104.58 28.12)">55451</text>
    <text class="cls-25" transform="translate(143.53 101.41)">17107</text>
    <text class="cls-25" transform="translate(143.53 125.83)">17161</text>
    <text class="cls-25" transform="translate(143.53 52.54)">17489</text>
    <text class="cls-25" transform="translate(143.53 76.97)">17564</text>
    <text class="cls-25" transform="translate(143.53 28.12)">18959</text>
    <text class="cls-25" transform="translate(184.14 101.41)">4486</text>
    <text class="cls-25" transform="translate(184.14 125.83)">4516</text>
    <text class="cls-25" transform="translate(184.14 52.54)">3958</text>
    <text class="cls-25" transform="translate(184.14 76.97)">4516</text>
    <text class="cls-25" transform="translate(184.14 28.12)">4991</text>
    <text class="cls-25" transform="translate(224.76 101.41)">655</text>
    <text class="cls-25" transform="translate(224.76 125.83)">670</text>
    <text class="cls-25" transform="translate(224.76 52.54)">496</text>
    <text class="cls-25" transform="translate(224.76 76.97)">677</text>
    <text class="cls-25" transform="translate(224.76 28.12)">758</text>
    <text class="cls-25" transform="translate(265.37 101.41)">92</text>
    <text class="cls-25" transform="translate(265.37 125.83)">98</text>
    <text class="cls-25" transform="translate(265.37 52.54)">55</text>
    <text class="cls-25" transform="translate(263.7 76.97)">101</text>
    <text class="cls-25" transform="translate(263.7 28.12)">116</text>
    <rect class="cls-26" x="93.45" y="18.06" width="194.72" height="122.14"/>
  </g>
  <text class="cls-27" transform="translate(16.99 130.14)">Nanopore R10.4 + Illumina</text>
  <text class="cls-27" transform="translate(44.49 105.72)">Nanopore R10.4</text>
  <text class="cls-27" transform="translate(15.33 81.29)">Nanopore R9.4.1 + Illumina</text>
  <text class="cls-27" transform="translate(42.83 56.85)">Nanopore R9.4.1</text>
  <text class="cls-27" transform="translate(57.43 32.43)"><tspan class="cls-28">P</tspan><tspan x="3.76" y="0">acBio HiFi</tspan></text>
  <line class="cls-29" x1="90.72" y1="127.98" x2="93.45" y2="127.98"/>
  <line class="cls-29" x1="90.72" y1="103.55" x2="93.45" y2="103.55"/>
  <line class="cls-29" x1="90.72" y1="79.12" x2="93.45" y2="79.12"/>
  <line class="cls-29" x1="90.72" y1="54.7" x2="93.45" y2="54.7"/>
  <line class="cls-29" x1="90.72" y1="30.27" x2="93.45" y2="30.27"/>
  <line class="cls-29" x1="112.92" y1="142.95" x2="112.92" y2="140.2"/>
  <line class="cls-29" x1="151.87" y1="142.95" x2="151.87" y2="140.2"/>
  <line class="cls-29" x1="190.81" y1="142.95" x2="190.81" y2="140.2"/>
  <line class="cls-29" x1="229.76" y1="142.95" x2="229.76" y2="140.2"/>
  <line class="cls-29" x1="268.7" y1="142.95" x2="268.7" y2="140.2"/>
  <text class="cls-27" transform="translate(111.26 149.43)">6</text>
  <text class="cls-27" transform="translate(150.2 149.43)">7</text>
  <text class="cls-27" transform="translate(189.14 149.43)">8</text>
  <text class="cls-27" transform="translate(228.08 149.43)">9</text>
  <text class="cls-27" transform="translate(265.37 149.43)">10</text>
  <text class="cls-30" transform="translate(158.53 158.53)">Homopolymer length</text>
  <text class="cls-30" transform="translate(93.45 11.04)">Adenines</text>
  <g class="cls-31">
    <rect class="cls-3" x="293.64" y="0.54" width="217.12" height="165.01"/>
    <rect class="cls-4" x="293.64" y="0.54" width="217.12" height="165.01"/>
  </g>
  <g class="cls-32">
    <rect class="cls-3" x="311.18" y="18.06" width="194.12" height="122.14"/>
    <line class="cls-6" x1="311.18" y1="140.2" x2="311.18" y2="18.05"/>
    <line class="cls-6" x1="349.99" y1="140.2" x2="349.99" y2="18.05"/>
    <line class="cls-6" x1="388.83" y1="140.2" x2="388.83" y2="18.05"/>
    <line class="cls-6" x1="427.64" y1="140.2" x2="427.64" y2="18.05"/>
    <line class="cls-6" x1="466.46" y1="140.2" x2="466.46" y2="18.05"/>
    <line class="cls-6" x1="505.3" y1="140.2" x2="505.3" y2="18.05"/>
    <line class="cls-7" x1="311.18" y1="127.98" x2="505.3" y2="127.98"/>
    <line class="cls-7" x1="311.18" y1="103.55" x2="505.3" y2="103.55"/>
    <line class="cls-7" x1="311.18" y1="79.12" x2="505.3" y2="79.12"/>
    <line class="cls-7" x1="311.18" y1="54.7" x2="505.3" y2="54.7"/>
    <line class="cls-7" x1="311.18" y1="30.27" x2="505.3" y2="30.27"/>
    <line class="cls-7" x1="330.58" y1="140.2" x2="330.58" y2="18.05"/>
    <line class="cls-7" x1="369.4" y1="140.2" x2="369.4" y2="18.05"/>
    <line class="cls-7" x1="408.24" y1="140.2" x2="408.24" y2="18.05"/>
    <line class="cls-7" x1="447.05" y1="140.2" x2="447.05" y2="18.05"/>
    <line class="cls-7" x1="485.89" y1="140.2" x2="485.89" y2="18.05"/>
    <rect class="cls-8" x="311.18" y="91.34" width="38.82" height="24.43"/>
    <rect class="cls-9" x="311.18" y="115.77" width="38.82" height="24.43"/>
    <rect class="cls-10" x="311.18" y="42.49" width="38.82" height="24.43"/>
    <rect class="cls-9" x="311.18" y="66.92" width="38.82" height="24.43"/>
    <rect class="cls-9" x="311.18" y="18.06" width="38.82" height="24.43"/>
    <rect class="cls-10" x="349.99" y="91.34" width="38.82" height="24.43"/>
    <rect class="cls-11" x="349.99" y="115.77" width="38.82" height="24.43"/>
    <rect class="cls-15" x="349.99" y="42.49" width="38.82" height="24.43"/>
    <rect class="cls-33" x="349.99" y="66.92" width="38.82" height="24.43"/>
    <rect class="cls-8" x="349.99" y="18.06" width="38.82" height="24.43"/>
    <rect class="cls-34" x="388.83" y="91.34" width="38.82" height="24.43"/>
    <rect class="cls-35" x="388.83" y="115.77" width="38.82" height="24.43"/>
    <rect class="cls-36" x="388.83" y="42.49" width="38.82" height="24.43"/>
    <rect class="cls-15" x="388.83" y="66.92" width="38.82" height="24.43"/>
    <rect class="cls-10" x="388.83" y="18.06" width="38.82" height="24.43"/>
    <rect class="cls-37" x="427.64" y="91.34" width="38.82" height="24.43"/>
    <rect class="cls-38" x="427.64" y="115.77" width="38.82" height="24.43"/>
    <rect class="cls-39" x="427.64" y="42.49" width="38.82" height="24.43"/>
    <rect class="cls-40" x="427.64" y="66.92" width="38.82" height="24.43"/>
    <rect class="cls-41" x="427.64" y="18.06" width="38.82" height="24.43"/>
    <rect class="cls-42" x="466.46" y="91.34" width="38.82" height="24.43"/>
    <rect class="cls-43" x="466.46" y="115.77" width="38.82" height="24.43"/>
    <rect class="cls-44" x="466.46" y="42.49" width="38.82" height="24.43"/>
    <rect class="cls-45" x="466.46" y="66.92" width="38.82" height="24.43"/>
    <rect class="cls-46" x="466.46" y="18.06" width="38.82" height="24.43"/>
    <text class="cls-25" transform="translate(320.24 110.01)">(51486)</text>
    <text class="cls-25" transform="translate(320.24 134.45)">(51384)</text>
    <text class="cls-25" transform="translate(320.24 61.16)">(50616)</text>
    <text class="cls-25" transform="translate(320.24 85.6)">(50341)</text>
    <text class="cls-25" transform="translate(320.24 36.74)">(53114)</text>
    <text class="cls-25" transform="translate(359.08 110.01)">(18110)</text>
    <text class="cls-25" transform="translate(359.08 134.45)">(18087)</text>
    <text class="cls-25" transform="translate(359.08 61.16)">(17360)</text>
    <text class="cls-25" transform="translate(359.08 85.6)">(17268)</text>
    <text class="cls-25" transform="translate(359.08 36.74)">(18533)</text>
    <text class="cls-25" transform="translate(399.57 110.01)">(4630)</text>
    <text class="cls-25" transform="translate(399.57 134.45)">(4622)</text>
    <text class="cls-25" transform="translate(399.57 61.16)">(4500)</text>
    <text class="cls-25" transform="translate(399.57 85.6)">(4492)</text>
    <text class="cls-25" transform="translate(399.57 36.74)">(4674)</text>
    <text class="cls-25" transform="translate(440.05 110.01)">(747)</text>
    <text class="cls-25" transform="translate(440.05 134.45)">(745)</text>
    <text class="cls-25" transform="translate(440.05 61.16)">(710)</text>
    <text class="cls-25" transform="translate(440.05 85.6)">(713)</text>
    <text class="cls-25" transform="translate(440.05 36.74)">(732)</text>
    <text class="cls-25" transform="translate(478.87 110.01)">(109)</text>
    <text class="cls-25" transform="translate(478.87 134.45)">(108)</text>
    <text class="cls-25" transform="translate(480.54 61.16)">(97)</text>
    <text class="cls-25" transform="translate(480.54 85.6)">(98)</text>
    <text class="cls-25" transform="translate(478.87 36.74)">(100)</text>
    <text class="cls-25" transform="translate(322.24 101.41)">51366</text>
    <text class="cls-25" transform="translate(322.24 125.83)">51349</text>
    <text class="cls-25" transform="translate(322.24 52.54)">50360</text>
    <text class="cls-25" transform="translate(322.24 76.97)">50296</text>
    <text class="cls-25" transform="translate(322.24 28.12)">53074</text>
    <text class="cls-25" transform="translate(361.07 101.41)">18031</text>
    <text class="cls-25" transform="translate(361.07 125.83)">18055</text>
    <text class="cls-25" transform="translate(361.07 52.54)">17223</text>
    <text class="cls-25" transform="translate(361.07 76.97)">17250</text>
    <text class="cls-25" transform="translate(361.07 28.12)">18493</text>
    <text class="cls-25" transform="translate(401.57 101.41)">4572</text>
    <text class="cls-25" transform="translate(401.57 125.83)">4597</text>
    <text class="cls-25" transform="translate(401.57 52.54)">4009</text>
    <text class="cls-25" transform="translate(401.57 76.97)">4452</text>
    <text class="cls-25" transform="translate(401.57 28.12)">4656</text>
    <text class="cls-25" transform="translate(442.05 101.41)">726</text>
    <text class="cls-25" transform="translate(442.05 125.83)">732</text>
    <text class="cls-25" transform="translate(442.05 52.54)">530</text>
    <text class="cls-25" transform="translate(442.05 76.97)">693</text>
    <text class="cls-25" transform="translate(442.05 28.12)">723</text>
    <text class="cls-25" transform="translate(482.54 101.41)">96</text>
    <text class="cls-25" transform="translate(482.54 125.83)">99</text>
    <text class="cls-25" transform="translate(482.54 52.54)">48</text>
    <text class="cls-25" transform="translate(482.54 76.97)">89</text>
    <text class="cls-25" transform="translate(482.54 28.12)">92</text>
    <rect class="cls-26" x="311.18" y="18.06" width="194.12" height="122.14"/>
  </g>
  <line class="cls-29" x1="308.43" y1="127.98" x2="311.18" y2="127.98"/>
  <line class="cls-29" x1="308.43" y1="103.55" x2="311.18" y2="103.55"/>
  <line class="cls-29" x1="308.43" y1="79.12" x2="311.18" y2="79.12"/>
  <line class="cls-29" x1="308.43" y1="54.7" x2="311.18" y2="54.7"/>
  <line class="cls-29" x1="308.43" y1="30.27" x2="311.18" y2="30.27"/>
  <line class="cls-29" x1="330.58" y1="142.95" x2="330.58" y2="140.2"/>
  <line class="cls-29" x1="369.4" y1="142.95" x2="369.4" y2="140.2"/>
  <line class="cls-29" x1="408.24" y1="142.95" x2="408.24" y2="140.2"/>
  <line class="cls-29" x1="447.05" y1="142.95" x2="447.05" y2="140.2"/>
  <line class="cls-29" x1="485.89" y1="142.95" x2="485.89" y2="140.2"/>
  <text class="cls-27" transform="translate(328.91 149.43)">6</text>
  <text class="cls-27" transform="translate(367.74 149.43)">7</text>
  <text class="cls-27" transform="translate(406.57 149.43)">8</text>
  <text class="cls-27" transform="translate(445.38 149.43)">9</text>
  <text class="cls-27" transform="translate(482.54 149.43)">10</text>
  <text class="cls-30" transform="translate(375.95 158.53)">Homopolymer length</text>
  <text class="cls-30" transform="translate(311.17 11.04)">T<tspan class="cls-47" x="4.28" y="0">h</tspan><tspan x="7.96" y="0">ymines</tspan></text>
  <g class="cls-48">
    <rect class="cls-3" x="0.54" y="165.55" width="293.11" height="165.01"/>
    <rect class="cls-4" x="0.54" y="165.55" width="293.11" height="165.01"/>
  </g>
  <g class="cls-49">
    <rect class="cls-3" x="93.45" y="183.08" width="194.72" height="122.14"/>
    <line class="cls-6" x1="93.45" y1="305.22" x2="93.45" y2="183.07"/>
    <line class="cls-6" x1="132.4" y1="305.22" x2="132.4" y2="183.07"/>
    <line class="cls-6" x1="171.34" y1="305.22" x2="171.34" y2="183.07"/>
    <line class="cls-6" x1="210.29" y1="305.22" x2="210.29" y2="183.07"/>
    <line class="cls-6" x1="249.23" y1="305.22" x2="249.23" y2="183.07"/>
    <line class="cls-6" x1="288.17" y1="305.22" x2="288.17" y2="183.07"/>
    <line class="cls-7" x1="93.45" y1="293.01" x2="288.17" y2="293.01"/>
    <line class="cls-7" x1="93.45" y1="268.58" x2="288.17" y2="268.58"/>
    <line class="cls-7" x1="93.45" y1="244.15" x2="288.17" y2="244.15"/>
    <line class="cls-7" x1="93.45" y1="219.71" x2="288.17" y2="219.71"/>
    <line class="cls-7" x1="93.45" y1="195.29" x2="288.17" y2="195.29"/>
    <line class="cls-7" x1="112.92" y1="305.22" x2="112.92" y2="183.07"/>
    <line class="cls-7" x1="151.87" y1="305.22" x2="151.87" y2="183.07"/>
    <line class="cls-7" x1="190.81" y1="305.22" x2="190.81" y2="183.07"/>
    <line class="cls-7" x1="229.76" y1="305.22" x2="229.76" y2="183.07"/>
    <line class="cls-7" x1="268.7" y1="305.22" x2="268.7" y2="183.07"/>
    <rect class="cls-50" x="93.45" y="256.35" width="38.94" height="24.43"/>
    <rect class="cls-11" x="93.45" y="280.79" width="38.94" height="24.43"/>
    <rect class="cls-51" x="93.45" y="207.49" width="38.94" height="24.43"/>
    <rect class="cls-11" x="93.45" y="231.92" width="38.94" height="24.43"/>
    <rect class="cls-11" x="93.45" y="183.06" width="38.94" height="24.43"/>
    <rect class="cls-52" x="132.4" y="256.35" width="38.94" height="24.43"/>
    <rect class="cls-10" x="132.4" y="280.79" width="38.94" height="24.43"/>
    <rect class="cls-53" x="132.4" y="207.49" width="38.94" height="24.43"/>
    <rect class="cls-20" x="132.4" y="231.92" width="38.94" height="24.43"/>
    <rect class="cls-15" x="132.4" y="183.06" width="38.94" height="24.43"/>
    <rect class="cls-54" x="171.34" y="256.35" width="38.94" height="24.43"/>
    <rect class="cls-17" x="171.34" y="280.79" width="38.94" height="24.43"/>
    <rect class="cls-55" x="171.34" y="207.49" width="38.94" height="24.43"/>
    <rect class="cls-37" x="171.34" y="231.92" width="38.94" height="24.43"/>
    <rect class="cls-56" x="171.34" y="183.06" width="38.94" height="24.43"/>
    <rect class="cls-57" x="210.29" y="256.35" width="38.94" height="24.43"/>
    <rect class="cls-58" x="210.29" y="280.79" width="38.94" height="24.43"/>
    <rect class="cls-59" x="210.29" y="207.49" width="38.94" height="24.43"/>
    <rect class="cls-60" x="210.29" y="231.92" width="38.94" height="24.43"/>
    <rect class="cls-61" x="210.29" y="183.06" width="38.94" height="24.43"/>
    <rect class="cls-62" x="249.23" y="256.35" width="38.94" height="24.43"/>
    <rect class="cls-24" x="249.23" y="280.79" width="38.94" height="24.43"/>
    <rect class="cls-63" x="249.23" y="207.49" width="38.94" height="24.43"/>
    <rect class="cls-22" x="249.23" y="231.92" width="38.94" height="24.43"/>
    <rect class="cls-64" x="249.23" y="183.06" width="38.94" height="24.43"/>
    <text class="cls-25" transform="translate(104.26 275.04)">(6845)</text>
    <text class="cls-25" transform="translate(104.26 299.46)">(6839)</text>
    <text class="cls-25" transform="translate(104.26 226.17)">(7465)</text>
    <text class="cls-25" transform="translate(104.26 250.61)">(7483)</text>
    <text class="cls-25" transform="translate(104.26 201.74)">(7624)</text>
    <text class="cls-25" transform="translate(143.2 275.04)">(1086)</text>
    <text class="cls-25" transform="translate(143.2 299.46)">(1086)</text>
    <text class="cls-25" transform="translate(143.2 226.17)">(1230)</text>
    <text class="cls-25" transform="translate(143.2 250.61)">(1235)</text>
    <text class="cls-25" transform="translate(143.2 201.74)">(1217)</text>
    <text class="cls-25" transform="translate(183.81 275.04)">(197)</text>
    <text class="cls-25" transform="translate(183.81 299.46)">(198)</text>
    <text class="cls-25" transform="translate(183.81 226.17)">(280)</text>
    <text class="cls-25" transform="translate(183.81 250.61)">(281)</text>
    <text class="cls-25" transform="translate(183.81 201.74)">(226)</text>
    <text class="cls-25" transform="translate(224.43 275.04)">(57)</text>
    <text class="cls-25" transform="translate(224.43 299.46)">(56)</text>
    <text class="cls-25" transform="translate(224.43 226.17)">(82)</text>
    <text class="cls-25" transform="translate(224.43 250.61)">(84)</text>
    <text class="cls-25" transform="translate(224.43 201.74)">(60)</text>
    <text class="cls-25" transform="translate(263.37 275.04)">(26)</text>
    <text class="cls-25" transform="translate(263.37 299.46)">(27)</text>
    <text class="cls-25" transform="translate(263.37 226.17)">(32)</text>
    <text class="cls-25" transform="translate(263.37 250.61)">(34)</text>
    <text class="cls-25" transform="translate(263.37 201.74)">(20)</text>
    <text class="cls-25" transform="translate(106.26 266.41)">6803</text>
    <text class="cls-25" transform="translate(106.26 290.84)">6831</text>
    <text class="cls-25" transform="translate(106.26 217.55)">7284</text>
    <text class="cls-25" transform="translate(106.26 241.99)">7470</text>
    <text class="cls-25" transform="translate(106.26 193.13)">7615</text>
    <text class="cls-25" transform="translate(145.2 266.41)">1066</text>
    <text class="cls-25" transform="translate(145.2 290.84)">1081</text>
    <text class="cls-25" transform="translate(146.87 217.55)">930</text>
    <text class="cls-25" transform="translate(145.2 241.99)">1218</text>
    <text class="cls-25" transform="translate(145.2 193.13)">1207</text>
    <text class="cls-25" transform="translate(185.81 266.41)">171</text>
    <text class="cls-25" transform="translate(185.81 290.84)">194</text>
    <text class="cls-25" transform="translate(185.81 217.55)">128</text>
    <text class="cls-25" transform="translate(185.81 241.99)">273</text>
    <text class="cls-25" transform="translate(185.81 193.13)">221</text>
    <text class="cls-25" transform="translate(226.41 266.41)">50</text>
    <text class="cls-25" transform="translate(226.41 290.84)">54</text>
    <text class="cls-25" transform="translate(226.41 217.55)">38</text>
    <text class="cls-25" transform="translate(226.41 241.99)">79</text>
    <text class="cls-25" transform="translate(226.41 193.13)">57</text>
    <text class="cls-25" transform="translate(265.37 266.41)">20</text>
    <text class="cls-25" transform="translate(265.37 290.84)">25</text>
    <text class="cls-25" transform="translate(265.37 217.55)">15</text>
    <text class="cls-25" transform="translate(265.37 241.99)">33</text>
    <text class="cls-25" transform="translate(265.37 193.13)">16</text>
    <rect class="cls-26" x="93.45" y="183.08" width="194.72" height="122.14"/>
  </g>
  <text class="cls-27" transform="translate(16.99 295.16)">Nanopore R10.4 + Illumina</text>
  <text class="cls-27" transform="translate(44.49 270.73)">Nanopore R10.4</text>
  <text class="cls-27" transform="translate(15.33 246.29)">Nanopore R9.4.1 + Illumina</text>
  <text class="cls-27" transform="translate(42.83 221.87)">Nanopore R9.4.1</text>
  <text class="cls-27" transform="translate(57.43 197.44)"><tspan class="cls-28">P</tspan><tspan x="3.76" y="0">acBio HiFi</tspan></text>
  <line class="cls-29" x1="90.72" y1="293.01" x2="93.45" y2="293.01"/>
  <line class="cls-29" x1="90.72" y1="268.58" x2="93.45" y2="268.58"/>
  <line class="cls-29" x1="90.72" y1="244.15" x2="93.45" y2="244.15"/>
  <line class="cls-29" x1="90.72" y1="219.71" x2="93.45" y2="219.71"/>
  <line class="cls-29" x1="90.72" y1="195.29" x2="93.45" y2="195.29"/>
  <line class="cls-29" x1="112.92" y1="307.95" x2="112.92" y2="305.22"/>
  <line class="cls-29" x1="151.87" y1="307.95" x2="151.87" y2="305.22"/>
  <line class="cls-29" x1="190.81" y1="307.95" x2="190.81" y2="305.22"/>
  <line class="cls-29" x1="229.76" y1="307.95" x2="229.76" y2="305.22"/>
  <line class="cls-29" x1="268.7" y1="307.95" x2="268.7" y2="305.22"/>
  <text class="cls-27" transform="translate(111.26 314.45)">6</text>
  <text class="cls-27" transform="translate(150.2 314.45)">7</text>
  <text class="cls-27" transform="translate(189.14 314.45)">8</text>
  <text class="cls-27" transform="translate(228.08 314.45)">9</text>
  <text class="cls-27" transform="translate(265.37 314.45)">10</text>
  <text class="cls-30" transform="translate(158.53 323.54)">Homopolymer length</text>
  <text class="cls-30" transform="translate(93.45 176.06)">Guanines</text>
  <g class="cls-65">
    <rect class="cls-3" x="293.64" y="165.55" width="217.12" height="165.01"/>
    <rect class="cls-4" x="293.64" y="165.55" width="217.12" height="165.01"/>
  </g>
  <g class="cls-66">
    <rect class="cls-3" x="311.18" y="183.08" width="194.12" height="122.14"/>
    <line class="cls-6" x1="311.18" y1="305.22" x2="311.18" y2="183.07"/>
    <line class="cls-6" x1="349.99" y1="305.22" x2="349.99" y2="183.07"/>
    <line class="cls-6" x1="388.83" y1="305.22" x2="388.83" y2="183.07"/>
    <line class="cls-6" x1="427.64" y1="305.22" x2="427.64" y2="183.07"/>
    <line class="cls-6" x1="466.46" y1="305.22" x2="466.46" y2="183.07"/>
    <line class="cls-6" x1="505.3" y1="305.22" x2="505.3" y2="183.07"/>
    <line class="cls-7" x1="311.18" y1="293.01" x2="505.3" y2="293.01"/>
    <line class="cls-7" x1="311.18" y1="268.58" x2="505.3" y2="268.58"/>
    <line class="cls-7" x1="311.18" y1="244.15" x2="505.3" y2="244.15"/>
    <line class="cls-7" x1="311.18" y1="219.71" x2="505.3" y2="219.71"/>
    <line class="cls-7" x1="311.18" y1="195.29" x2="505.3" y2="195.29"/>
    <line class="cls-7" x1="330.58" y1="305.22" x2="330.58" y2="183.07"/>
    <line class="cls-7" x1="369.4" y1="305.22" x2="369.4" y2="183.07"/>
    <line class="cls-7" x1="408.24" y1="305.22" x2="408.24" y2="183.07"/>
    <line class="cls-7" x1="447.05" y1="305.22" x2="447.05" y2="183.07"/>
    <line class="cls-7" x1="485.89" y1="305.22" x2="485.89" y2="183.07"/>
    <rect class="cls-10" x="311.18" y="256.35" width="38.82" height="24.43"/>
    <rect class="cls-8" x="311.18" y="280.79" width="38.82" height="24.43"/>
    <rect class="cls-67" x="311.18" y="207.49" width="38.82" height="24.43"/>
    <rect class="cls-11" x="311.18" y="231.92" width="38.82" height="24.43"/>
    <rect class="cls-11" x="311.18" y="183.06" width="38.82" height="24.43"/>
    <rect class="cls-17" x="349.99" y="256.35" width="38.82" height="24.43"/>
    <rect class="cls-12" x="349.99" y="280.79" width="38.82" height="24.43"/>
    <rect class="cls-68" x="349.99" y="207.49" width="38.82" height="24.43"/>
    <rect class="cls-50" x="349.99" y="231.92" width="38.82" height="24.43"/>
    <rect class="cls-12" x="349.99" y="183.06" width="38.82" height="24.43"/>
    <rect class="cls-46" x="388.83" y="256.35" width="38.82" height="24.43"/>
    <rect class="cls-17" x="388.83" y="280.79" width="38.82" height="24.43"/>
    <rect class="cls-69" x="388.83" y="207.49" width="38.82" height="24.43"/>
    <rect class="cls-70" x="388.83" y="231.92" width="38.82" height="24.43"/>
    <rect class="cls-19" x="388.83" y="183.06" width="38.82" height="24.43"/>
    <rect class="cls-71" x="427.64" y="256.35" width="38.82" height="24.43"/>
    <rect class="cls-72" x="427.64" y="280.79" width="38.82" height="24.43"/>
    <rect class="cls-73" x="427.64" y="207.49" width="38.82" height="24.43"/>
    <rect class="cls-74" x="427.64" y="231.92" width="38.82" height="24.43"/>
    <rect class="cls-75" x="427.64" y="183.06" width="38.82" height="24.43"/>
    <rect class="cls-76" x="466.46" y="256.35" width="38.82" height="24.43"/>
    <rect class="cls-77" x="466.46" y="280.79" width="38.82" height="24.43"/>
    <rect class="cls-78" x="466.46" y="207.49" width="38.82" height="24.43"/>
    <rect class="cls-79" x="466.46" y="231.92" width="38.82" height="24.43"/>
    <rect class="cls-80" x="466.46" y="183.06" width="38.82" height="24.43"/>
    <text class="cls-25" transform="translate(321.91 275.04)">(7726)</text>
    <text class="cls-25" transform="translate(321.91 299.46)">(7720)</text>
    <text class="cls-25" transform="translate(321.91 226.17)">(7081)</text>
    <text class="cls-25" transform="translate(321.91 250.61)">(7081)</text>
    <text class="cls-25" transform="translate(321.91 201.74)">(7769)</text>
    <text class="cls-25" transform="translate(360.74 275.04)">(1311)</text>
    <text class="cls-25" transform="translate(360.74 299.46)">(1312)</text>
    <text class="cls-25" transform="translate(360.74 226.17)">(1144)</text>
    <text class="cls-25" transform="translate(360.74 250.61)">(1152)</text>
    <text class="cls-25" transform="translate(360.74 201.74)">(1313)</text>
    <text class="cls-25" transform="translate(401.24 275.04)">(337)</text>
    <text class="cls-25" transform="translate(401.24 299.46)">(336)</text>
    <text class="cls-25" transform="translate(401.24 226.17)">(247)</text>
    <text class="cls-25" transform="translate(401.24 250.61)">(249)</text>
    <text class="cls-25" transform="translate(401.24 201.74)">(332)</text>
    <text class="cls-25" transform="translate(441.73 275.04)">(81)</text>
    <text class="cls-25" transform="translate(441.73 299.46)">(80)</text>
    <text class="cls-25" transform="translate(441.73 226.17)">(50)</text>
    <text class="cls-25" transform="translate(441.73 250.61)">(50)</text>
    <text class="cls-25" transform="translate(441.73 201.74)">(86)</text>
    <text class="cls-25" transform="translate(480.54 275.04)">(24)</text>
    <text class="cls-25" transform="translate(480.54 299.46)">(24)</text>
    <text class="cls-25" transform="translate(480.54 226.17)">(17)</text>
    <text class="cls-25" transform="translate(480.54 250.61)">(17)</text>
    <text class="cls-25" transform="translate(480.54 201.74)">(39)</text>
    <text class="cls-25" transform="translate(323.91 266.41)">7693</text>
    <text class="cls-25" transform="translate(323.91 290.84)">7705</text>
    <text class="cls-25" transform="translate(323.91 217.55)">6862</text>
    <text class="cls-25" transform="translate(323.91 241.99)">7069</text>
    <text class="cls-25" transform="translate(323.91 193.13)">7760</text>
    <text class="cls-25" transform="translate(362.74 266.41)">1284</text>
    <text class="cls-25" transform="translate(362.74 290.84)">1300</text>
    <text class="cls-25" transform="translate(364.41 217.55)">845</text>
    <text class="cls-25" transform="translate(362.74 241.99)">1144</text>
    <text class="cls-25" transform="translate(362.74 193.13)">1301</text>
    <text class="cls-25" transform="translate(403.23 266.41)">310</text>
    <text class="cls-25" transform="translate(403.23 290.84)">329</text>
    <text class="cls-25" transform="translate(403.23 217.55)">104</text>
    <text class="cls-25" transform="translate(403.23 241.99)">241</text>
    <text class="cls-25" transform="translate(403.23 193.13)">321</text>
    <text class="cls-25" transform="translate(443.73 266.41)">63</text>
    <text class="cls-25" transform="translate(443.73 290.84)">75</text>
    <text class="cls-25" transform="translate(443.73 217.55)">20</text>
    <text class="cls-25" transform="translate(443.73 241.99)">48</text>
    <text class="cls-25" transform="translate(443.73 193.13)">80</text>
    <text class="cls-25" transform="translate(482.54 266.41)">19</text>
    <text class="cls-25" transform="translate(482.54 290.84)">23</text>
    <text class="cls-25" transform="translate(484.21 217.55)">6</text>
    <text class="cls-25" transform="translate(482.54 241.99)">14</text>
    <text class="cls-25" transform="translate(482.54 193.13)">34</text>
    <rect class="cls-26" x="311.18" y="183.08" width="194.12" height="122.14"/>
  </g>
  <line class="cls-29" x1="308.43" y1="293.01" x2="311.18" y2="293.01"/>
  <line class="cls-29" x1="308.43" y1="268.58" x2="311.18" y2="268.58"/>
  <line class="cls-29" x1="308.43" y1="244.15" x2="311.18" y2="244.15"/>
  <line class="cls-29" x1="308.43" y1="219.71" x2="311.18" y2="219.71"/>
  <line class="cls-29" x1="308.43" y1="195.29" x2="311.18" y2="195.29"/>
  <line class="cls-29" x1="330.58" y1="307.95" x2="330.58" y2="305.22"/>
  <line class="cls-29" x1="369.4" y1="307.95" x2="369.4" y2="305.22"/>
  <line class="cls-29" x1="408.24" y1="307.95" x2="408.24" y2="305.22"/>
  <line class="cls-29" x1="447.05" y1="307.95" x2="447.05" y2="305.22"/>
  <line class="cls-29" x1="485.89" y1="307.95" x2="485.89" y2="305.22"/>
  <text class="cls-27" transform="translate(328.91 314.45)">6</text>
  <text class="cls-27" transform="translate(367.74 314.45)">7</text>
  <text class="cls-27" transform="translate(406.57 314.45)">8</text>
  <text class="cls-27" transform="translate(445.38 314.45)">9</text>
  <text class="cls-27" transform="translate(482.54 314.45)">10</text>
  <text class="cls-30" transform="translate(375.95 323.54)">Homopolymer length</text>
  <text class="cls-30" transform="translate(311.17 176.06)">Cytosines</text>
</svg>
