<svg id="Layer_1" data-name="Layer 1" xmlns="http://www.w3.org/2000/svg" viewBox="0 0 1572.98 831.77">
  <defs>
    <style>
      .cls-1, .cls-22, .cls-9 {
        fill: none;
      }

      .cls-1 {
        stroke: #b3b3b3;
      }

      .cls-1, .cls-10, .cls-14, .cls-15, .cls-16, .cls-17, .cls-18, .cls-19, .cls-20, .cls-21, .cls-3, .cls-5, .cls-6, .cls-9 {
        stroke-miterlimit: 10;
      }

      .cls-2 {
        fill: #b3b3b3;
      }

      .cls-3 {
        fill: #543005;
      }

      .cls-10, .cls-14, .cls-15, .cls-16, .cls-17, .cls-18, .cls-19, .cls-20, .cls-21, .cls-3, .cls-5, .cls-6, .cls-9 {
        stroke: #000;
      }

      .cls-10, .cls-14, .cls-15, .cls-16, .cls-17, .cls-18, .cls-19, .cls-20, .cls-21, .cls-3, .cls-5 {
        opacity: 0.85;
      }

      .cls-4 {
        font-size: 12px;
        font-family: Helvetica, Helvetica;
      }

      .cls-5, .cls-6 {
        fill: #765937;
      }

      .cls-7 {
        font-size: 10px;
      }

      .cls-8 {
        letter-spacing: -0.02em;
      }

      .cls-10 {
        fill: #8e0152;
      }

      .cls-11 {
        letter-spacing: -0.07em;
      }

      .cls-12 {
        letter-spacing: -0.11em;
      }

      .cls-13 {
        letter-spacing: -0.04em;
      }

      .cls-14 {
        fill: #c994c7;
      }

      .cls-15 {
        fill: #48c7ff;
      }

      .cls-16 {
        fill: #ed1e79;
      }

      .cls-17 {
        fill: #65f04e;
      }

      .cls-18 {
        fill: #008837;
      }

      .cls-19 {
        fill: #a6dba0;
      }

      .cls-20 {
        fill: #eee8aa;
      }

      .cls-21 {
        fill: gold;
      }
    </style>
  </defs>
  <title>mags-workflow-v1</title>
  <g>
    <path class="cls-1" d="M1272.07,92.33C1156.34,89.44,1016.44,135,991,218" transform="translate(-16.17 -6.71)"/>
    <polygon class="cls-2" points="972.03 207.57 975.17 210.09 979.16 209.57 973.22 217.02 972.03 207.57"/>
  </g>
  <g>
    <path class="cls-1" d="M1272.07,92.33C1025.86-32.14,597.66,58.69,572.16,217.81" transform="translate(-16.17 -6.71)"/>
    <polygon class="cls-2" points="552.75 207.82 556.2 209.88 560.09 208.83 555.22 217.02 552.75 207.82"/>
  </g>
  <g>
    <path class="cls-1" d="M1272.07,92.33C1026.05-60.15,188.88-2.06,153.64,220.81" transform="translate(-16.17 -6.71)"/>
    <polygon class="cls-2" points="134.23 210.83 137.69 212.89 141.57 211.82 136.72 220.03 134.23 210.83"/>
  </g>
  <g>
    <line class="cls-2" x1="1403.22" y1="296.36" x2="54.74" y2="296.36"/>
    <g>
      <line class="cls-1" x1="1403.22" y1="296.36" x2="60.71" y2="296.36"/>
      <polygon class="cls-2" points="63.52 292.65 61.94 296.36 63.52 300.06 54.74 296.36 63.52 292.65"/>
    </g>
  </g>
  <rect class="cls-3" x="1255.89" y="54.13" width="103.49" height="63" rx="12" ry="12"/>
  <text class="cls-4" transform="translate(1268.29 81.23)">Illumina MiSeq<tspan x="24.34" y="14.4">reads</tspan></text>
  <g>
    <rect class="cls-3" x="1401.51" y="262.62" width="103.49" height="63" rx="12" ry="12"/>
    <rect class="cls-5" x="1408.51" y="270.39" width="103.49" height="63" rx="12" ry="12"/>
    <rect class="cls-5" x="1417.24" y="277.62" width="103.49" height="63" rx="12" ry="12"/>
    <rect class="cls-5" x="1426.24" y="285.62" width="103.49" height="63" rx="12" ry="12"/>
    <rect class="cls-5" x="1434.24" y="294.12" width="103.49" height="63" rx="12" ry="12"/>
    <rect class="cls-5" x="1442.74" y="301.89" width="103.49" height="63" rx="12" ry="12"/>
    <rect class="cls-5" x="1451.26" y="309.12" width="103.49" height="63" rx="12" ry="12"/>
    <rect class="cls-5" x="1460.26" y="317.12" width="103.49" height="63" rx="12" ry="12"/>
    <rect class="cls-6" x="1468.99" y="325.62" width="103.49" height="63" rx="12" ry="12"/>
    <text class="cls-4" transform="translate(1492.06 351.39)">9x Illumina<tspan x="-15.34" y="14.4">timeseries reads</tspan></text>
  </g>
  <g>
    <rect class="cls-3" x="1256.48" y="222.36" width="103.49" height="63" rx="12" ry="12"/>
    <text class="cls-4" transform="translate(1287.55 249.46)">Illumina<tspan x="-14.35" y="14.4">metagenome</tspan></text>
  </g>
  <g>
    <rect class="cls-3" x="1255.89" y="393.12" width="103.49" height="63" rx="12" ry="12"/>
    <text class="cls-4" transform="translate(1286.97 420.22)">Illumina<tspan x="4.01" y="14.4">MAGs</tspan></text>
  </g>
  <text class="cls-4" transform="translate(1313.13 165.12)">Assembly:<tspan class="cls-7"><tspan x="0" y="12">MEGAHI</tspan><tspan class="cls-8" x="39.45" y="12">T</tspan></tspan></text>
  <g>
    <line class="cls-9" x1="1307.64" y1="122.46" x2="1307.64" y2="213.82"/>
    <polygon points="1303.94 211.01 1307.64 212.59 1311.34 211.01 1307.64 219.79 1303.94 211.01"/>
  </g>
  <g>
    <line class="cls-9" x1="52.25" y1="119.69" x2="52.25" y2="211.05"/>
    <polygon points="48.54 208.25 52.25 209.82 55.95 208.25 52.25 217.02 48.54 208.25"/>
  </g>
  <g>
    <line class="cls-9" x1="52.25" y1="290.69" x2="52.25" y2="382.05"/>
    <polygon points="48.54 379.24 52.25 380.81 55.95 379.24 52.25 388.02 48.54 379.24"/>
  </g>
  <line class="cls-9" x1="52.25" y1="459.28" x2="52.25" y2="483.69"/>
  <line class="cls-9" x1="239.53" y1="459.28" x2="239.53" y2="483.69"/>
  <line class="cls-9" x1="470.94" y1="459.28" x2="470.94" y2="483.69"/>
  <line class="cls-9" x1="658.53" y1="459.28" x2="658.53" y2="483.69"/>
  <g>
    <line class="cls-9" x1="52.25" y1="536.61" x2="52.25" y2="555.05"/>
    <polygon points="48.54 552.24 52.25 553.81 55.95 552.24 52.25 561.01 48.54 552.24"/>
  </g>
  <g>
    <line class="cls-9" x1="239.53" y1="536.61" x2="239.53" y2="555.05"/>
    <polygon points="235.83 552.24 239.53 553.81 243.24 552.24 239.53 561.01 235.83 552.24"/>
  </g>
  <g>
    <line class="cls-9" x1="470.94" y1="536.61" x2="470.94" y2="555.05"/>
    <polygon points="467.24 552.24 470.94 553.81 474.65 552.24 470.94 561.01 467.24 552.24"/>
  </g>
  <g>
    <line class="cls-9" x1="658.23" y1="536.61" x2="658.23" y2="555.05"/>
    <polygon points="654.53 552.24 658.23 553.81 661.93 552.24 658.23 561.01 654.53 552.24"/>
  </g>
  <g>
    <line class="cls-9" x1="889.64" y1="536.61" x2="889.64" y2="555.05"/>
    <polygon points="885.94 552.24 889.64 553.81 893.34 552.24 889.64 561.01 885.94 552.24"/>
  </g>
  <g>
    <line class="cls-9" x1="1076.53" y1="536.6" x2="1076.53" y2="555.04"/>
    <polygon points="1072.83 552.23 1076.53 553.8 1080.24 552.23 1076.53 561.01 1072.83 552.23"/>
  </g>
  <g>
    <line class="cls-9" x1="1308.22" y1="536.61" x2="1308.22" y2="555.05"/>
    <polygon points="1304.52 552.24 1308.22 553.81 1311.93 552.24 1308.22 561.01 1304.52 552.24"/>
  </g>
  <line class="cls-9" x1="770.87" y1="483.69" x2="770.87" y2="537.02"/>
  <g>
    <line class="cls-9" x1="889.64" y1="459.28" x2="889.64" y2="483.69"/>
    <line class="cls-9" x1="1076.93" y1="459.28" x2="1076.93" y2="483.69"/>
    <line class="cls-9" x1="1307.64" y1="459.28" x2="1307.64" y2="483.69"/>
  </g>
  <g>
    <rect class="cls-10" x="0.5" y="51.36" width="103.49" height="63" rx="12" ry="12"/>
    <text class="cls-4" transform="translate(20.91 78.46)">PacBio HiFi<tspan x="16.33" y="14.4">reads</tspan></text>
  </g>
  <text class="cls-4" transform="translate(57.74 162.36)">Assembly:<tspan class="cls-7"><tspan x="0" y="12">metaFlye</tspan></tspan></text>
  <text class="cls-4" transform="translate(57.74 315.69)">Binning:<tspan class="cls-7"><tspan x="0" y="12">MetaB</tspan><tspan class="cls-11" x="28.9" y="12">A</tspan><tspan x="34.83" y="12">T2</tspan><tspan x="0" y="24">MaxBin2</tspan><tspan class="cls-11" x="0" y="36">V</tspan><tspan x="5.93" y="36">AMB</tspan><tspan x="0" y="48">DAS</tspan><tspan class="cls-8" x="20.56" y="48"> </tspan><tspan class="cls-12" x="23.16" y="48">T</tspan><tspan x="28.16" y="48">ool</tspan></tspan></text>
  <g>
    <line class="cls-9" x1="239.53" y1="290.69" x2="239.53" y2="382.05"/>
    <polygon points="235.83 379.24 239.53 380.81 243.24 379.24 239.53 388.02 235.83 379.24"/>
  </g>
  <text class="cls-4" transform="translate(245.03 315.69)">Binning:<tspan class="cls-7"><tspan x="0" y="12">MetaB</tspan><tspan class="cls-11" x="28.9" y="12">A</tspan><tspan x="34.83" y="12">T2</tspan><tspan x="0" y="24">MaxBin2</tspan><tspan class="cls-11" x="0" y="36">V</tspan><tspan x="5.93" y="36">AMB</tspan><tspan x="0" y="48">DAS</tspan><tspan class="cls-8" x="20.56" y="48"> </tspan><tspan class="cls-12" x="23.16" y="48">T</tspan><tspan x="28.16" y="48">ool</tspan></tspan></text>
  <g>
    <line class="cls-9" x1="470.94" y1="290.69" x2="470.94" y2="382.05"/>
    <polygon points="467.24 379.24 470.94 380.81 474.65 379.24 470.94 388.02 467.24 379.24"/>
  </g>
  <text class="cls-4" transform="translate(476.44 315.69)">Binning:<tspan class="cls-7"><tspan x="0" y="12">MetaB</tspan><tspan class="cls-11" x="28.9" y="12">A</tspan><tspan x="34.83" y="12">T2</tspan><tspan x="0" y="24">MaxBin2</tspan><tspan class="cls-11" x="0" y="36">V</tspan><tspan x="5.93" y="36">AMB</tspan><tspan x="0" y="48">DAS</tspan><tspan class="cls-8" x="20.56" y="48"> </tspan><tspan class="cls-12" x="23.16" y="48">T</tspan><tspan x="28.16" y="48">ool</tspan></tspan></text>
  <g>
    <line class="cls-9" x1="658.23" y1="290.69" x2="658.23" y2="382.05"/>
    <polygon points="654.53 379.24 658.23 380.81 661.93 379.24 658.23 388.02 654.53 379.24"/>
  </g>
  <text class="cls-4" transform="translate(663.72 315.69)">Binning:<tspan class="cls-7"><tspan x="0" y="12">MetaB</tspan><tspan class="cls-11" x="28.9" y="12">A</tspan><tspan x="34.83" y="12">T2</tspan><tspan x="0" y="24">MaxBin2</tspan><tspan class="cls-11" x="0" y="36">V</tspan><tspan x="5.93" y="36">AMB</tspan><tspan x="0" y="48">DAS</tspan><tspan class="cls-8" x="20.56" y="48"> </tspan><tspan class="cls-12" x="23.16" y="48">T</tspan><tspan x="28.16" y="48">ool</tspan></tspan></text>
  <text class="cls-4" transform="translate(776.39 501.69)">MAG processing:<tspan class="cls-7"><tspan x="0" y="12">CheckM</tspan><tspan x="0" y="24">dRep</tspan></tspan></text>
  <text class="cls-4" transform="translate(476.44 729.94)">Homopolymer counting:<tspan class="cls-7"><tspan x="0" y="12">Counterr</tspan></tspan></text>
  <text class="cls-4" transform="translate(1082.42 729.94)">Protein truncation inference:<tspan class="cls-7"><tspan x="0" y="12">IDEE</tspan><tspan class="cls-13" x="23.34" y="12">L</tspan></tspan></text>
  <text class="cls-4" transform="translate(776.39 729.94)">Consensus error calculation:<tspan class="cls-7"><tspan x="0" y="12">QUAS</tspan><tspan class="cls-8" x="28.34" y="12">T</tspan></tspan></text>
  <g>
    <line class="cls-9" x1="889.64" y1="290.69" x2="889.64" y2="382.05"/>
    <polygon points="885.94 379.24 889.64 380.81 893.34 379.24 889.64 388.02 885.94 379.24"/>
  </g>
  <text class="cls-4" transform="translate(895.13 315.69)">Binning:<tspan class="cls-7"><tspan x="0" y="12">MetaB</tspan><tspan class="cls-11" x="28.9" y="12">A</tspan><tspan x="34.83" y="12">T2</tspan><tspan x="0" y="24">MaxBin2</tspan><tspan class="cls-11" x="0" y="36">V</tspan><tspan x="5.93" y="36">AMB</tspan><tspan x="0" y="48">DAS</tspan><tspan class="cls-8" x="20.56" y="48"> </tspan><tspan class="cls-12" x="23.16" y="48">T</tspan><tspan x="28.16" y="48">ool</tspan></tspan></text>
  <g>
    <line class="cls-9" x1="1076.93" y1="290.69" x2="1076.93" y2="382.05"/>
    <polygon points="1073.22 379.24 1076.93 380.81 1080.63 379.24 1076.93 388.02 1073.22 379.24"/>
  </g>
  <text class="cls-4" transform="translate(1082.42 315.69)">Binning:<tspan class="cls-7"><tspan x="0" y="12">MetaB</tspan><tspan class="cls-11" x="28.9" y="12">A</tspan><tspan x="34.83" y="12">T2</tspan><tspan x="0" y="24">MaxBin2</tspan><tspan class="cls-11" x="0" y="36">V</tspan><tspan x="5.93" y="36">AMB</tspan><tspan x="0" y="48">DAS</tspan><tspan class="cls-8" x="20.56" y="48"> </tspan><tspan class="cls-12" x="23.16" y="48">T</tspan><tspan x="28.16" y="48">ool</tspan></tspan></text>
  <g>
    <line class="cls-9" x1="1307.64" y1="290.57" x2="1307.64" y2="381.93"/>
    <polygon points="1303.94 379.12 1307.64 380.7 1311.34 379.12 1307.64 387.9 1303.94 379.12"/>
  </g>
  <text class="cls-4" transform="translate(1313.13 316.95)">Binning:<tspan class="cls-7"><tspan x="0" y="12">MetaB</tspan><tspan class="cls-11" x="28.9" y="12">A</tspan><tspan x="34.83" y="12">T2</tspan><tspan x="0" y="24">MaxBin2</tspan><tspan class="cls-11" x="0" y="36">V</tspan><tspan x="5.93" y="36">AMB</tspan><tspan x="0" y="48">DAS</tspan><tspan class="cls-8" x="20.56" y="48"> </tspan><tspan class="cls-12" x="23.16" y="48">T</tspan><tspan x="28.16" y="48">ool</tspan></tspan></text>
  <text class="cls-4" transform="translate(109.56 233.12)">Polishing:<tspan class="cls-7"><tspan x="0" y="12">Racon</tspan></tspan></text>
  <g>
    <rect class="cls-10" x="0.5" y="222.36" width="103.49" height="63" rx="12" ry="12"/>
    <text class="cls-4" transform="translate(20.91 249.45)">PacBio HiFi<tspan x="-3.68" y="14.4">metagenome</tspan></text>
  </g>
  <g>
    <rect class="cls-14" x="187.79" y="222.36" width="103.49" height="63" rx="12" ry="12"/>
    <text class="cls-4" transform="translate(194.51 244.45)">Illumina-polished<tspan x="13.68" y="14.4">PacBio HiFi</tspan><tspan x="10" y="28.8">metagenome</tspan></text>
  </g>
  <g>
    <line class="cls-9" x1="109.56" y1="253.85" x2="176.25" y2="253.85"/>
    <polygon points="173.45 257.56 175.02 253.85 173.45 250.15 182.22 253.85 173.45 257.56"/>
  </g>
  <line class="cls-9" x1="51.91" y1="483.69" x2="1308.22" y2="483.69"/>
  <line class="cls-9" x1="52.25" y1="631.15" x2="52.25" y2="655.56"/>
  <line class="cls-9" x1="239.53" y1="631.15" x2="239.53" y2="655.56"/>
  <line class="cls-9" x1="470.94" y1="631.15" x2="470.94" y2="655.56"/>
  <line class="cls-9" x1="658.53" y1="631.15" x2="658.53" y2="655.56"/>
  <line class="cls-9" x1="770.87" y1="655.56" x2="770.87" y2="708.89"/>
  <g>
    <line class="cls-9" x1="470.94" y1="708.56" x2="470.94" y2="755.92"/>
    <polygon points="467.24 753.12 470.94 754.69 474.65 753.12 470.94 761.89 467.24 753.12"/>
  </g>
  <g>
    <line class="cls-9" x1="770.87" y1="708.56" x2="770.87" y2="755.92"/>
    <polygon points="767.17 753.12 770.87 754.69 774.57 753.12 770.87 761.89 767.17 753.12"/>
  </g>
  <g>
    <line class="cls-9" x1="1076.53" y1="708.48" x2="1076.53" y2="755.84"/>
    <polygon points="1072.83 753.03 1076.53 754.61 1080.24 753.03 1076.53 761.81 1072.83 753.03"/>
  </g>
  <line class="cls-9" x1="889.64" y1="631.15" x2="889.64" y2="655.56"/>
  <line class="cls-9" x1="1076.93" y1="631.15" x2="1076.93" y2="655.56"/>
  <line class="cls-9" x1="1307.64" y1="631.15" x2="1307.64" y2="655.56"/>
  <line class="cls-9" x1="51.91" y1="655.56" x2="1308.22" y2="655.56"/>
  <line class="cls-9" x1="51.91" y1="537.02" x2="1308.22" y2="537.02"/>
  <line class="cls-9" x1="470.94" y1="708.89" x2="1076.93" y2="708.89"/>
  <g>
    <rect class="cls-10" x="0.5" y="393.35" width="103.49" height="63" rx="12" ry="12"/>
    <text class="cls-4" transform="translate(20.91 420.45)">PacBio HiFi<tspan x="14.67" y="14.4">MAGs</tspan></text>
  </g>
  <g>
    <rect class="cls-15" x="419.2" y="768.27" width="103.49" height="63" rx="12" ry="12"/>
    <text class="cls-4" transform="translate(433.6 795.37)">Homopolymer<tspan x="-10.01" y="14.4">calling accuracies</tspan></text>
  </g>
  <g>
    <rect class="cls-16" x="719.12" y="768.27" width="103.49" height="63" rx="12" ry="12"/>
    <rect class="cls-17" x="1024.79" y="768.27" width="103.49" height="63" rx="12" ry="12"/>
    <text class="cls-4" transform="translate(733.52 795.37)">Mismatch and<tspan x="9.67" y="14.4">indel rates</tspan></text>
    <text class="cls-4" transform="translate(1033.85 795.37)">Gene frameshift<tspan x="17.01" y="14.4">estimates</tspan></text>
  </g>
  <g>
    <rect class="cls-14" x="187.79" y="393.35" width="103.49" height="63" rx="12" ry="12"/>
    <text class="cls-4" transform="translate(194.51 415.45)">Illumina-polished<tspan x="13.68" y="14.4">PacBio HiFi</tspan><tspan x="28.36" y="28.8">MAGs</tspan></text>
  </g>
  <g>
    <rect class="cls-18" x="419.2" y="51.36" width="103.49" height="63" rx="12" ry="12"/>
    <text class="cls-4" transform="translate(425.25 78.46)">Nanopore R9.4.1<tspan x="30.69" y="14.4">reads</tspan></text>
  </g>
  <g>
    <rect class="cls-18" x="419.2" y="222.36" width="103.49" height="63" rx="12" ry="12"/>
    <text class="cls-4" transform="translate(425.25 249.45)">Nanopore R9.4.1<tspan x="10.68" y="14.4">metagenome</tspan></text>
  </g>
  <text class="cls-4" transform="translate(476.91 139.79)">Assembly:<tspan class="cls-7"><tspan x="0" y="12">metaFlye</tspan></tspan></text>
  <text class="cls-4" transform="translate(476.91 171.12)">Polishing:<tspan class="cls-7"><tspan x="0" y="12">3x Racon</tspan><tspan x="0" y="24">2x Medaka</tspan></tspan></text>
  <g>
    <line class="cls-9" x1="470.94" y1="119.69" x2="470.94" y2="211.05"/>
    <polygon points="467.24 208.25 470.94 209.82 474.65 208.25 470.94 217.02 467.24 208.25"/>
  </g>
  <text class="cls-4" transform="translate(528.56 233.12)">Polishing:<tspan class="cls-7"><tspan x="0" y="12">Racon</tspan></tspan></text>
  <g>
    <rect class="cls-19" x="606.79" y="222.36" width="103.49" height="63" rx="12" ry="12"/>
    <text class="cls-4" transform="translate(613.51 244.45)">Illumina-polished<tspan x="-0.67" y="14.4">Nanopore R9.4.1</tspan><tspan x="10" y="28.8">metagenome</tspan></text>
  </g>
  <g>
    <line class="cls-9" x1="528.56" y1="253.85" x2="595.25" y2="253.85"/>
    <polygon points="592.45 257.56 594.02 253.85 592.45 250.15 601.22 253.85 592.45 257.56"/>
  </g>
  <g>
    <rect class="cls-18" x="419.2" y="393.35" width="103.49" height="63" rx="12" ry="12"/>
    <text class="cls-4" transform="translate(425.25 420.45)">Nanopore R9.4.1<tspan x="29.03" y="14.4">MAGs</tspan></text>
  </g>
  <g>
    <rect class="cls-19" x="606.79" y="393.35" width="103.49" height="63" rx="12" ry="12"/>
    <text class="cls-4" transform="translate(613.51 415.45)">Illumina-polished<tspan x="-0.67" y="14.4">Nanopore R9.4.1</tspan><tspan x="28.36" y="28.8">MAGs</tspan></text>
  </g>
  <text class="cls-4" transform="translate(946.56 233.12)">Polishing:<tspan class="cls-7"><tspan x="0" y="12">Racon</tspan></tspan></text>
  <g>
    <rect class="cls-20" x="1024.79" y="222.36" width="103.49" height="63" rx="12" ry="12"/>
    <text class="cls-4" transform="translate(1031.51 244.45)">Illumina-polished<tspan x="0.99" y="14.4">Nanopore R10.4</tspan><tspan x="10" y="28.8">metagenome</tspan></text>
  </g>
  <g>
    <line class="cls-9" x1="946.56" y1="253.85" x2="1013.25" y2="253.85"/>
    <polygon points="1010.45 257.56 1012.02 253.85 1010.45 250.15 1019.22 253.85 1010.45 257.56"/>
  </g>
  <g>
    <rect class="cls-21" x="837.89" y="51.36" width="103.49" height="63" rx="12" ry="12"/>
    <text class="cls-4" transform="translate(845.61 78.46)">Nanopore R10.4<tspan x="29.02" y="14.4">reads</tspan></text>
  </g>
  <g>
    <rect class="cls-21" x="837.89" y="222.36" width="103.49" height="63" rx="12" ry="12"/>
    <text class="cls-4" transform="translate(845.61 249.45)">Nanopore R10.4<tspan x="9.01" y="14.4">metagenome</tspan></text>
  </g>
  <g>
    <rect class="cls-20" x="1024.79" y="393.35" width="103.49" height="63" rx="12" ry="12"/>
    <text class="cls-4" transform="translate(1031.51 415.45)">Illumina-polished<tspan x="0.99" y="14.4">Nanopore R10.4</tspan><tspan x="28.36" y="28.8">MAGs</tspan></text>
  </g>
  <g>
    <rect class="cls-21" x="837.89" y="393.35" width="103.49" height="63" rx="12" ry="12"/>
    <text class="cls-4" transform="translate(845.61 420.45)">Nanopore R10.4<tspan x="27.36" y="14.4">MAGs</tspan></text>
  </g>
  <rect class="cls-3" x="1255.89" y="564.35" width="103.49" height="63" rx="12" ry="12"/>
  <text class="cls-4" transform="translate(1281.96 586.05)">Clustered<tspan x="5" y="14.4">Illumina</tspan><tspan x="9.01" y="28.8">MAGs</tspan></text>
  <rect class="cls-10" x="0.5" y="564.58" width="103.49" height="63" rx="12" ry="12"/>
  <text class="cls-4" transform="translate(26.57 586.06)">Clustered<tspan x="-5.66" y="14.4">PacBio HiFi</tspan><tspan x="9.01" y="28.8">MAGs</tspan></text>
  <rect class="cls-14" x="187.79" y="564.58" width="103.49" height="63" rx="12" ry="12"/>
  <text class="cls-4" transform="translate(213.86 578.85)">Clustered<tspan x="-19.34" y="14.4">Illumina-polished</tspan><tspan x="-5.66" y="28.8">PacBio HiFi</tspan><tspan x="9.01" y="43.2">MAGs</tspan></text>
  <rect class="cls-18" x="419.2" y="564.58" width="103.49" height="63" rx="12" ry="12"/>
  <text class="cls-4" transform="translate(445.26 586.05)">Clustered<tspan x="-20.02" y="14.4">Nanopore R9.4.1</tspan><tspan x="9.01" y="28.8">MAGs</tspan></text>
  <rect class="cls-19" x="606.79" y="564.58" width="103.49" height="63" rx="12" ry="12"/>
  <text class="cls-4" transform="translate(632.86 578.85)">Clustered<tspan x="-19.34" y="14.4">Illumina-polished</tspan><tspan x="-20.02" y="28.8">Nanopore R9.4.1</tspan><tspan x="9.01" y="43.2">MAGs</tspan></text>
  <rect class="cls-20" x="1024.79" y="564.58" width="103.49" height="63" rx="12" ry="12"/>
  <text class="cls-4" transform="translate(1050.86 578.86)">Clustered<tspan x="-19.34" y="14.4">Illumina-polished</tspan><tspan x="-18.35" y="28.8">Nanopore R10.4</tspan><tspan x="9.01" y="43.2">MAGs</tspan></text>
  <rect class="cls-21" x="837.89" y="564.58" width="103.49" height="63" rx="12" ry="12"/>
  <text class="cls-4" transform="translate(863.96 586.05)">Clustered<tspan x="-18.35" y="14.4">Nanopore R10.4</tspan><tspan x="9.01" y="28.8">MAGs</tspan></text>
  <g>
    <text class="cls-4" transform="translate(895.61 139.79)">Assembly:<tspan class="cls-7"><tspan x="0" y="12">metaFlye</tspan></tspan></text>
    <text class="cls-4" transform="translate(895.61 171.12)">Polishing:<tspan class="cls-7"><tspan x="0" y="12">3x Racon</tspan><tspan x="0" y="24">2x Medaka</tspan></tspan></text>
    <g>
      <line class="cls-9" x1="889.64" y1="119.69" x2="889.64" y2="211.05"/>
      <polygon points="885.94 208.25 889.64 209.82 893.34 208.25 889.64 217.02 885.94 208.25"/>
    </g>
  </g>
  <path class="cls-22" d="M162.07,223.73" transform="translate(-16.17 -6.71)"/>
  <path class="cls-22" d="M1371,63.44" transform="translate(-16.17 -6.71)"/>
  <path class="cls-22" d="M581.07,223.73" transform="translate(-16.17 -6.71)"/>
  <path class="cls-22" d="M-40.6-97.6" transform="translate(-16.17 -6.71)"/>
  <path class="cls-22" d="M999.07,223.73" transform="translate(-16.17 -6.71)"/>
  <path class="cls-22" d="M1323.81,60.83" transform="translate(-16.17 -6.71)"/>
  <path class="cls-22" d="M152.9,226.73" transform="translate(-16.17 -6.71)"/>
  <path class="cls-22" d="M82.83-52.46" transform="translate(-16.17 -6.71)"/>
  <path class="cls-22" d="M575.32,226.73" transform="translate(-16.17 -6.71)"/>
  <path class="cls-22" d="M510.73-100.95" transform="translate(-16.17 -6.71)"/>
  <g>
    <path class="cls-1" d="M247.2,303.06c-29.77,0-30.67,26.45-2,27.47" transform="translate(-16.17 -6.71)"/>
    <polygon class="cls-2" points="226.28 327.49 227.82 323.77 226.2 320.09 235.02 323.69 226.28 327.49"/>
  </g>
  <g>
    <path class="cls-1" d="M478.54,303.06c-29.77,0-30.67,26.45-2,27.47" transform="translate(-16.17 -6.71)"/>
    <polygon class="cls-2" points="457.62 327.49 459.15 323.77 457.54 320.09 466.36 323.69 457.62 327.49"/>
  </g>
  <g>
    <path class="cls-1" d="M665.23,303.06c-29.77,0-30.67,26.45-2,27.47" transform="translate(-16.17 -6.71)"/>
    <polygon class="cls-2" points="644.32 327.49 645.85 323.77 644.23 320.09 653.05 323.69 644.32 327.49"/>
  </g>
  <g>
    <path class="cls-1" d="M896.48,303.06c-29.77,0-30.67,26.45-2,27.47" transform="translate(-16.17 -6.71)"/>
    <polygon class="cls-2" points="875.57 327.49 877.1 323.77 875.48 320.09 884.3 323.69 875.57 327.49"/>
  </g>
  <g>
    <path class="cls-1" d="M1083.58,303.06c-29.77,0-30.67,26.45-2,27.47" transform="translate(-16.17 -6.71)"/>
    <polygon class="cls-2" points="1062.67 327.49 1064.2 323.77 1062.59 320.09 1071.41 323.69 1062.67 327.49"/>
  </g>
  <g>
    <path class="cls-1" d="M1314.87,303.06c-29.77,0-30.67,26.45-2,27.47" transform="translate(-16.17 -6.71)"/>
    <polygon class="cls-2" points="1293.96 327.49 1295.49 323.77 1293.87 320.09 1302.69 323.69 1293.96 327.49"/>
  </g>
</svg>
